# xmcd CD database file
#
# Track frame offsets:
#	150
#	14085
#	33081
#	58601
#	75804
#	87406
#	111165
#	122724
#	151661
#	171068
#	193428
#	212751
#	230763
#	253295
#
# Disc length: 3589 seconds
#
# Revision: 0
# Processed by: cddbd v1.4PL0 Copyright (c) Steve Scherf et al.
# Submitted via: Feurio! 1.64 - http://www.feurio.com
#
DISCID=b90e030e
DTITLE=Various Artist - From Dusk Til Dawn
DYEAR=1900
DGENRE=
TTITLE0=??? - ZZ Top - Mexican Blackbird
TTITLE1=??? - Tito and Tarantula - After Dark
TTITLE2=??? - Tito&Tarantula - Strange face of love
TTITLE3=??? - The Blasters - Dark Night
TTITLE4=??? - Desperado (The Soundtrack) Latin Playboys - Forever Night Shade 
TTITLE4=Mary
TTITLE5=??? - Tito and Tarantulas - Carachas Anjodas
TTITLE6=Jon Wayne - Texas Funeral
TTITLE7=Jimmie Vaughan - Dengue Woman Blues
TTITLE8=Smashing Pumpkins - Mellon Collie and The Infinite Sadness - Dusk Till 
TTITLE8=Dawn - 07 - To Forgive
TTITLE9=ZZ Top -  ZZ Top - She's Just Killing Me
TTITLE10=Steve Ray Vauhan -  Mary Had A Little Lamb
TTITLE11=Tito and Tarantula - Flying in my Sleep
TTITLE12=Tito and Tarantula - Sweet Cycle
TTITLE13=The Mavericks - Foolish Heart
EXTD=
EXTT0=
EXTT1=
EXTT2=
EXTT3=
EXTT4=
EXTT5=
EXTT6=
EXTT7=
EXTT8=
EXTT9=
EXTT10=
EXTT11=
EXTT12=
EXTT13=
PLAYORDER=
